<svg width="8" height="11" viewBox="0 0 8 11" fill="none" xmlns="http://www.w3.org/2000/svg">
<path fill-rule="evenodd" clip-rule="evenodd" d="M0.458374 4.97538C0.458374 2.75721 2.05999 0.964355 3.99731 0.964355C5.94009 0.964355 7.54171 2.75721 7.54171 4.97538C7.54171 6.09314 7.19046 7.13086 6.61233 8.01041C5.97454 8.98061 5.18844 9.82593 4.3036 10.4894C4.10109 10.6428 3.91832 10.6544 3.69606 10.4894C2.80618 9.82593 2.02008 8.98061 1.38775 8.01041C0.809201 7.13086 0.458374 6.09314 0.458374 4.97538ZM2.83097 5.10026C2.83097 5.84335 3.3549 6.42779 3.99731 6.42779C4.64014 6.42779 5.16911 5.84335 5.16911 5.10026C5.16911 4.36297 4.64014 3.75008 3.99731 3.75008C3.3549 3.75008 2.83097 4.36297 2.83097 5.10026Z" fill="#A1A8B0"/>
</svg>
