<svg width="9" height="10" viewBox="0 0 9 10" fill="none" xmlns="http://www.w3.org/2000/svg">
<path d="M6.63286 5.69989C6.52495 5.82092 6.47536 5.99597 6.49995 6.16764L6.87037 8.54018C6.90162 8.74127 6.82828 8.94477 6.68286 9.06099C6.54036 9.18154 6.35078 9.19601 6.19536 9.09957L4.34995 7.98563C4.28578 7.94608 4.21453 7.92487 4.14161 7.92246H4.0287C3.98953 7.92921 3.9512 7.94367 3.9162 7.96586L2.07036 9.0851C1.97911 9.13814 1.87578 9.15695 1.77453 9.13814C1.52786 9.08413 1.36328 8.81216 1.4037 8.52524L1.77453 6.15269C1.79911 5.97958 1.74953 5.80356 1.64161 5.6806L0.137032 3.99281C0.0111983 3.85152 -0.0325517 3.63934 0.0249483 3.4479C0.0807816 3.25694 0.223282 3.11758 0.395365 3.08623L2.4662 2.73855C2.6237 2.71974 2.76203 2.60883 2.83286 2.44488L3.74536 0.27969C3.76703 0.231467 3.79495 0.187103 3.8287 0.149489L3.8662 0.115734C3.88578 0.0906581 3.90828 0.0699225 3.93328 0.0530446L3.9787 0.0337557L4.04953 0H4.22495C4.38161 0.0188067 4.51953 0.127307 4.59161 0.289334L5.5162 2.44488C5.58286 2.60256 5.71245 2.71203 5.86203 2.73855L7.93286 3.08623C8.10786 3.11517 8.25411 3.25501 8.31203 3.4479C8.36661 3.64127 8.31953 3.85345 8.1912 3.99281L6.63286 5.69989Z" fill="#66DED4"/>
</svg>
